<?xml version="1.0" encoding="UTF-8" standalone="no"?>
<svg
   width="400.00003"
   height="399.99994"
   version="1.1"
   viewBox="0 0 105.83333 105.83332"
   xml:space="preserve"
   id="svg2"
   sodipodi:docname="ao_white.svg"
   inkscape:version="1.4.3 (0d15f75, 2025-12-25)"
   inkscape:export-filename="ao.png"
   inkscape:export-xdpi="96"
   inkscape:export-ydpi="96"
   xmlns:inkscape="http://www.inkscape.org/namespaces/inkscape"
   xmlns:sodipodi="http://sodipodi.sourceforge.net/DTD/sodipodi-0.dtd"
   xmlns="http://www.w3.org/2000/svg"
   xmlns:svg="http://www.w3.org/2000/svg"><defs
     id="defs2" /><sodipodi:namedview
     id="namedview2"
     pagecolor="#ffffff"
     bordercolor="#111111"
     borderopacity="1"
     inkscape:showpageshadow="0"
     inkscape:pageopacity="0"
     inkscape:pagecheckerboard="1"
     inkscape:deskcolor="#d1d1d1"
     inkscape:document-units="mm"
     inkscape:zoom="1.1789508"
     inkscape:cx="15.267813"
     inkscape:cy="125.95945"
     inkscape:window-width="2560"
     inkscape:window-height="1494"
     inkscape:window-x="-11"
     inkscape:window-y="-11"
     inkscape:window-maximized="1"
     inkscape:current-layer="svg2" /><path
     style="fill:#ffffff;fill-opacity:1;stroke-width:0.509532"
     d="m 36.306998,99.09257 c -13.05305,-5.274036 -16.79329,-6.836363 -16.82316,-7.027167 -0.0329,-0.210279 1.93919,-25.001294 2.02849,-25.499675 0.0177,-0.0988 0.44661,0.643447 0.95314,1.649439 1.48775,2.954759 3.26353,5.485226 5.73277,8.169125 1.43866,1.563723 25.00553,29.391118 24.94011,29.448908 -0.0256,0.0227 -7.59974,-3.01063 -16.83135,-6.74063 z m 20.53264,5.33848 c 0.0148,-0.0485 -3.63816,-4.42245 -8.11779,-9.71986 -4.47962,-5.297409 -8.24103,-9.747334 -8.35866,-9.888731 -0.2557,-0.307321 -0.27375,-0.311092 1.49251,0.311734 3.03512,1.070254 5.90517,1.582371 10.29232,1.836493 1.77959,0.103081 11.06863,0.826872 20.64232,1.608423 9.57368,0.78155 17.54643,1.421001 17.71723,1.421001 0.17079,0 0.27725,0.03327 0.23657,0.07395 -0.13544,0.135441 -33.93193,14.44669 -33.9045,14.35699 z M 8.6150484,74.088774 c -3.92154,-9.229062 -7.13642,-16.847501 -7.14419,-16.929863 -0.0133,-0.141382 19.6226696,-16.92779 19.7050396,-16.845428 0.0213,0.0213 -0.14977,0.547706 -0.38015,1.169798 -1.06113,2.865343 -1.79366,6.788178 -1.94822,10.432975 -0.0703,1.658463 -2.95542,38.099776 -3.0682,38.754161 -0.0188,0.109165 -3.24274,-7.352576 -7.1642796,-16.581643 z M 91.986508,86.405375 c -0.11122,-0.02201 -5.87466,-0.498136 -12.80764,-1.058025 -6.93297,-0.559895 -12.65489,-1.032514 -12.71537,-1.050276 -0.0605,-0.01778 0.70374,-0.437697 1.69826,-0.933193 1.87368,-0.933515 4.37439,-2.517226 5.89406,-3.732733 0.48197,-0.385507 1.66499,-1.421735 2.62894,-2.302728 1.92911,-1.763118 29.081042,-24.822528 29.148512,-24.75506 0.035,0.03503 -13.564792,33.836209 -13.624762,33.863172 -0.0109,0.0051 -0.11077,-0.0091 -0.222,-0.03113 z m -42.40002,-3.294098 c -9.06646,-1.096301 -16.94399,-5.906446 -21.99639,-13.431356 -1.07374,-1.599216 -2.84348,-5.174413 -3.40584,-6.880439 -1.1895,-3.608621 -1.55905,-5.948676 -1.55905,-9.872151 0,-3.245126 0.16189,-4.691317 0.81838,-7.310758 1.02195,-4.077652 3.0811,-8.295811 5.57865,-11.427847 3.91762,-4.912868 9.0403,-8.430402 14.94452,-10.261782 11.53861,-3.579071 24.32699,0.163838 32.06743,9.385516 3.91583,4.665177 6.29306,10.132778 6.98784,16.071993 1.54935,13.24425 -5.68611,25.903483 -17.88863,31.298158 -2.42497,1.072068 -4.90792,1.801938 -7.6601,2.251715 -1.54884,0.253119 -6.36351,0.361142 -7.88681,0.176951 z m 5.66233,-3.361544 c 6.43805,-0.605139 12.13072,-3.270681 16.66219,-7.80191 4.65031,-4.65007 7.27546,-10.382844 7.83017,-17.099448 0.25453,-3.081958 -0.23433,-7.371038 -1.09977,-9.648929 -1.07336,-2.825171 -4.34679,-4.953552 -8.75113,-5.689971 -2.03678,-0.340556 -5.93006,-0.217944 -8.17464,0.257447 -3.19613,0.676925 -6.25354,1.945041 -8.85983,3.674776 -0.72296,0.47981 -1.31461,0.884265 -1.31478,0.898787 -1.8e-4,0.01452 0.49095,0.0064 1.0914,-0.01797 4.03215,-0.163882 7.64341,2.622161 8.70717,6.717473 0.33365,1.284501 0.2989,3.662297 -0.0739,5.055379 -2.09202,7.817653 -12.04668,13.895586 -22.12755,13.510227 -3.16236,-0.120889 -5.96787,-0.802395 -8.18929,-1.989323 -0.9663,-0.516303 -0.97416,-0.517956 -0.74683,-0.157109 1.97826,3.140217 5.4458,6.518568 8.73389,8.509247 4.80723,2.91039 10.79997,4.299511 16.31289,3.781325 z m -12.58048,-13.41254 c 2.73683,-0.411044 5.48776,-1.267157 7.79447,-2.425704 1.11432,-0.559671 3.53632,-2.080143 3.67908,-2.309636 0.039,-0.06274 -0.41458,-0.09411 -1.00803,-0.06971 -3.98084,0.163706 -7.65827,-2.654972 -8.66908,-6.644689 -0.25455,-1.004712 -0.2608,-3.218397 -0.0124,-4.390006 0.97703,-4.608276 4.8692,-8.907252 10.48846,-11.584699 6.53556,-3.114038 14.32075,-3.335295 19.82277,-0.563366 0.57466,0.289514 1.04483,0.501894 1.04483,0.471957 0,-0.02994 -0.16129,-0.31105 -0.35842,-0.624696 -1.40215,-2.230837 -4.34156,-5.322692 -6.65207,-6.997072 -7.12067,-5.160184 -16.03236,-6.561012 -24.33453,-3.82514 -4.14766,1.366809 -7.49081,3.427966 -10.59541,6.532407 -4.65032,4.650068 -7.27547,10.382841 -7.83018,17.099445 -0.28103,3.40283 0.31886,8.034706 1.30699,10.091523 1.26275,2.628463 4.27213,4.512616 8.35548,5.231317 1.48904,0.262081 5.24775,0.266432 6.96802,0.0081 z m 11.31502,-7.343244 c 3.20058,-0.593437 5.52012,-3.818723 5.00066,-6.953371 -0.44358,-2.67678 -2.52161,-4.762352 -5.18482,-5.203637 -3.96825,-0.657526 -7.65796,3.031985 -7.00039,7.000031 0.56947,3.436464 3.83236,5.778525 7.18455,5.156977 z m 30.5882,6.573082 c 0,-0.02791 0.18763,-0.562847 0.41696,-1.188739 1.04745,-2.858832 1.79368,-6.860394 1.93428,-10.37248 0.10899,-2.722422 3.08279,-38.840622 3.18808,-38.72072 0.11423,0.130091 14.167632,33.217497 14.192242,33.414283 0.0105,0.08435 -3.86611,3.451237 -8.614782,7.481961 -4.74867,4.030724 -9.19258,7.802857 -9.87536,8.382519 -0.68278,0.579661 -1.24142,1.03109 -1.24142,1.003176 z M 2.1938284,47.518755 c 1.32818,-3.290583 4.43573,-10.987704 6.90567,-17.104713 l 4.4907996,-11.121834 0.47186,0.100342 c 0.36127,0.07683 24.8835,2.129352 25.3878,2.124976 0.0603,-5.1e-4 -0.72841,0.419925 -1.75262,0.93433 -3.07008,1.541931 -5.94599,3.555564 -8.40084,5.882038 -0.55612,0.527039 -7.32057,6.31456 -15.03212,12.861158 -7.7115396,6.546597 -14.12548962,11.993732 -14.25319962,12.104743 -0.12772,0.111011 0.85447,-2.490457 2.18265002,-5.78104 z m 81.1405596,-9.84537 c -1.5768,-3.171508 -3.59745,-5.978217 -6.39091,-8.877064 C 75.412608,27.207694 52.422468,0.09941695 52.521818,8.294782e-5 52.562418,-0.04050705 86.309858,13.516921 86.408648,13.613509 c 0.0196,0.01918 -2.05716,24.891655 -2.12758,25.48085 -0.0393,0.328735 -0.18696,0.107072 -0.94668,-1.420974 z M 64.483798,20.893528 c -2.60793,-1.012587 -6.2285,-1.732247 -9.75957,-1.939907 -3.58828,-0.211024 -39.23412,-3.136779 -39.34619,-3.229472 -0.0548,-0.04536 7.43258,-3.280124 16.63869,-7.1883731 9.20611,-3.908249 16.74738,-7.090742 16.75836,-7.072206 0.0176,0.02969 15.97768,18.9464281 16.49224,19.5474671 0.24866,0.290449 0.27881,0.294971 -0.78353,-0.117509 z"
     id="path1" /></svg>
